# xmcd
#
# Track frame offsets:
#	150
#	15840
#	32080
#	46813
#	62361
#	78685
#	95295
#	112660
#	128731
#	146514
#	166711
#	181076
#	195298
#
# Disc length: 2832 seconds
#
# Revision: 1
# Processed by: cddbd v1.5.2PL0 Copyright (c) Steve Scherf et al.
# Submitted via: EZCDAudioConverter 8.1.1.1
#
DISCID=8a0b0e0d
DTITLE=Brett Young - Ticket To L.A.
DYEAR=2018
DGENRE=Country
TTITLE0=Brett Young - Ticket To L.A.
TTITLE1=Brett Young - Here Tonight
TTITLE2=Brett Young - Catch
TTITLE3=Brett Young - 1, 2, 3 Mississippi
TTITLE4=Brett Young - Let It Be Mine
TTITLE5=Brett Young - Where You Want Me
TTITLE6=Brett Young - Used To Missin' You
TTITLE7=Brett Young - Change Your Name
TTITLE8=Brett Young Feat. Gavin Degraw - Chapters
TTITLE9=Brett Young - The Ship And The Bottle
TTITLE10=Brett Young - Reason To Stay
TTITLE11=Brett Young - Runnin' Away From Home
TTITLE12=Brett Young - Don't Wanna Write This Song
EXTD=
EXTT0=
EXTT1=
EXTT2=
EXTT3=
EXTT4=
EXTT5=
EXTT6=
EXTT7=
EXTT8=
EXTT9=
EXTT10=
EXTT11=
EXTT12=
PLAYORDER=
